<svg xmlns="http://www.w3.org/2000/svg" width="48" height="33" viewBox="0 0 48 33" overflow="visible"><linearGradient id="a" gradientUnits="userSpaceOnUse" x1="13.044" y1="20.252" x2="45.18" y2="20.252"><stop offset="0" stop-color="#fff"/><stop offset="1" stop-color="#e44145"/></linearGradient><path fill="url(#a)" d="M3.36 14.996L7.559 33.07l31.516.414 5.039-17.644-7.979 5.031L23.952 7.02 11.348 20.465z"/><linearGradient id="b" gradientUnits="userSpaceOnUse" x1="27.267" y1="21.171" x2="36.867" y2="21.171"><stop offset="0" stop-color="#fff"/><stop offset="1" stop-color="#e44145"/></linearGradient><path fill="url(#b)" d="M24.373 9.547l.836 22.666 10.506.582.834-8.557z"/><linearGradient id="c" gradientUnits="userSpaceOnUse" x1="14.551" y1="20.318" x2="24.71" y2="20.318"><stop offset="0" stop-color="#fff"/><stop offset="1" stop-color="#e44145"/></linearGradient><path fill="url(#c)" d="M11.489 21.158l.841 11.203 12.043-.414-.554-23.672z"/><linearGradient id="d" gradientUnits="userSpaceOnUse" x1="5.906" y1="23.828" x2="13.415" y2="23.828"><stop offset="0" stop-color="#fff"/><stop offset="1" stop-color="#e44145"/></linearGradient><path fill="url(#d)" d="M3.643 15.709L8.12 31.947l5.046-.135-1.677-10.654z"/><linearGradient id="e" gradientUnits="userSpaceOnUse" x1="1.266" y1="10.658" x2="5.468" y2="10.658"><stop offset="0" stop-color="#fff"/><stop offset="1" stop-color="#e44145"/></linearGradient><path fill="url(#e)" d="M5.328 10.656a2.685 2.685 0 0 1-2.676 2.674C1.197 13.33 0 12.125 0 10.656c0-1.473 1.197-2.67 2.652-2.67a2.68 2.68 0 0 1 2.676 2.67z"/><linearGradient id="f" gradientUnits="userSpaceOnUse" x1="22.692" y1="2.667" x2="26.899" y2="2.667"><stop offset="0" stop-color="#fff"/><stop offset="1" stop-color="#e44145"/></linearGradient><path fill="url(#f)" d="M26.76 2.674a2.67 2.67 0 0 1-2.675 2.66 2.663 2.663 0 0 1-2.66-2.66c0-1.469 1.197-2.674 2.66-2.674a2.684 2.684 0 0 1 2.675 2.674z"/><linearGradient id="g" gradientUnits="userSpaceOnUse" x1="43.706" y1="12.756" x2="47.894" y2="12.756"><stop offset="0" stop-color="#fff"/><stop offset="1" stop-color="#e44145"/></linearGradient><path fill="url(#g)" d="M47.756 12.76a2.667 2.667 0 0 1-2.666 2.652 2.654 2.654 0 0 1-2.646-2.652 2.656 2.656 0 0 1 2.646-2.66 2.668 2.668 0 0 1 2.666 2.66z"/></svg>