<svg version="1" xmlns="http://www.w3.org/2000/svg" width="1024" height="768" viewBox="0 0 1024 768"><path d="M343.198 675.504c-13.362 0-23.521-3.379-30.479-10.006-6.788-6.533-10.161-16.131-10.161-28.694v-69.369c0-12.605 3.373-22.173 10.161-28.735 6.788-6.508 16.962-9.759 30.479-9.759 13.547 0 23.693 3.251 30.464 9.759 6.775 6.562 10.176 16.13 10.176 28.735 0 2.315-1.53 3.465-4.537 3.465-3 0-4.52-1.149-4.52-3.465 0-7.11-1.019-12.763-3.09-16.999-2.081-4.137-4.645-7.343-7.749-9.523-3.117-2.213-6.475-3.584-10.188-4.277-3.643-.611-7.172-.937-10.558-.937-3.398 0-6.972.325-10.727.937-3.755.693-7.213 2.064-10.285 4.277-3.131 2.181-5.712 5.387-7.78 9.523-2.068 4.236-3.078 9.889-3.078 16.999v69.369c0 10.841 2.693 18.954 8.178 24.342 5.458 5.061 13.349 7.627 23.692 7.627 10.345 0 18.235-2.566 23.693-7.627 5.256-5.076 7.891-13.212 7.891-24.342v-19.131h-36.644c-3.032 0-4.561-1.177-4.561-3.483 0-2.312 1.529-3.48 4.561-3.48h41.163c3.006 0 4.537 1.168 4.537 3.48v22.614c0 12.563-3.401 22.161-10.176 28.694-6.965 6.627-17.13 10.006-30.462 10.006zm126.399-66.777c8.275 6.1 12.413 14.696 12.413 25.889v37.172c0 2.323-1.502 3.484-4.535 3.484-1.107 0-2.098-.326-2.946-.967-.835-.651-1.277-1.472-1.277-2.518v-37.172c0-8.997-3.074-15.912-9.294-20.793-6.192-4.852-14.965-7.234-26.243-7.234h-25.381v65.199c0 2.323-1.513 3.484-4.533 3.484-1.135 0-2.098-.326-2.948-.967-.865-.651-1.303-1.472-1.303-2.518v-139.79c0-.903.438-1.659 1.303-2.277.851-.671 1.813-.989 2.948-.989h29.914c15.046 0 26.13 3.094 33.312 9.316 7.129 6.256 10.714 16.056 10.714 29.388 0 13.183-3.501 23.005-10.442 29.347-3.017 2.75-6.889 4.93-11.579 6.533a43.157 43.157 0 0 1 5.216 2.383 35.963 35.963 0 0 1 4.661 3.03zm-57.264-8.871h25.381c12.214 0 21.169-2.559 26.823-7.653 5.426-4.803 8.163-13.021 8.163-24.769 0-11.313-2.736-19.464-8.163-24.483-5.471-4.986-14.381-7.485-26.823-7.485h-25.381v64.39zm95.369 75.648c-3.006 0-4.537-1.199-4.537-3.506V532.191c0-.846.44-1.596 1.304-2.273.835-.637 1.884-.978 3.233-.978 1.287 0 2.364.341 3.242.978.835.678 1.247 1.428 1.247 2.273v139.807c0 2.307-1.515 3.506-4.489 3.506zm28.479-9.369c1.318 0 2.409.342 3.244 1.008.852.618 1.262 1.397 1.262 2.248v2.607c0 2.307-1.487 3.506-4.506 3.506-3.032 0-4.492-1.199-4.492-3.506v-2.607c0-.851.397-1.63 1.246-2.248.852-.666 1.929-1.008 3.246-1.008zm86.906-63.955c0 .91-.412 1.678-1.277 2.33-.849.617-1.939.966-3.242.966h-55.022v66.522c0 1.037-.442 1.854-1.277 2.524a4.798 4.798 0 0 1-2.961.981c-3.002 0-4.52-1.199-4.52-3.506V532.191c0-.846.438-1.596 1.274-2.273.865-.637 1.929-.978 3.246-.978h59.261c1.303 0 2.394.341 3.242.978.865.678 1.277 1.428 1.277 2.273 0 2.319-1.516 3.507-4.52 3.507h-55.022v63.038h55.022c3.003 0 4.519 1.151 4.519 3.444zm57.544 73.324c-4.52 0-9.182-.547-13.958-1.566-4.792-1.015-9.182-2.933-13.138-5.832-3.952-2.893-7.125-6.874-9.59-11.853-2.438-5.013-3.671-11.53-3.671-19.692v-68.894c0-12.471 3.287-22.046 9.89-28.735 6.943-6.639 17.117-9.991 30.466-9.991 13.559 0 23.705 3.353 30.481 9.991 6.771 6.547 10.159 16.137 10.159 28.735v68.894c0 8.162-1.232 14.68-3.697 19.692-2.438 4.979-5.613 8.96-9.581 11.853-3.939 2.899-8.32 4.817-13.12 5.832-4.776 1.019-9.551 1.566-14.241 1.566zm0-139.806c-10.701 0-18.507 2.551-23.411 7.627-5.484 5.338-8.174 13.448-8.174 24.342v68.894c0 10.994 2.689 19.197 8.174 24.585 5.087 5.061 12.884 7.627 23.411 7.627 10.343 0 18.236-2.566 23.705-7.627 5.257-5.076 7.893-13.265 7.893-24.585v-68.894c0-11.167-2.635-19.304-7.893-24.342-5.269-5.076-13.178-7.627-23.705-7.627z" fill="#FFF"/><linearGradient id="a" gradientUnits="userSpaceOnUse" x1="559.764" y1="395.435" x2="728.158" y2="395.435"><stop offset="0" stop-color="#fff"/><stop offset="1" stop-color="#e44145"/></linearGradient><path fill="url(#a)" d="M509.018 381.977v31.432l37.095 25.001-20.176 15.273 50.8 3.247.792-13.721-9.664-31.418 10.471-.795 16.905-5.35 16.935-8.048 10.486 29.008 18.52 18.546 24.997 4.02 24.966-8.072 26.598-19.345 4.833-21.753-13.701 15.31-20.137 11.294-29.021 5.623-18.535-20.139-10.472-24.979 4.846-53.171-18.534 2.099-17.726.782-70.117 13.703z"/><linearGradient id="b" gradientUnits="userSpaceOnUse" x1="482.802" y1="384.84" x2="688.322" y2="-16.177"><stop offset="0" stop-color="#fff"/><stop offset="1" stop-color="#e44145"/></linearGradient><path fill="url(#b)" d="M511.993 177.619l84.892-87.088 241.728-12.898-44.038 18.269-26.856 20.457-121.422 119.245-24.726 77.412-18.252 42.936-23.634 54.794-51.566-8.582-11.833 5.383h-31.16l-10.755 33.279-24.698-3.214-4.309 12.89-8.571-2.165-4.323 27.96-12.892 7.508-10.759-3.241-11.787 12.905 3.23-23.637 16.096-1.072 7.524-3.221-13.943-63.375-39.76-4.316-48.363-85.953 56.937-95.632 71.997-99.904 29.021 5.346 12.881 18.247 19.341 37.667"/><linearGradient id="c" gradientUnits="userSpaceOnUse" x1="690.13" y1="274.328" x2="813.482" y2="33.639"><stop offset="0" stop-color="#fff"/><stop offset="1" stop-color="#e44145"/></linearGradient><path fill="url(#c)" d="M833.271 100.207l-24.714 8.611-17.201-10.735-170.834 1.067-88.123 80.596-46.211 81.645 165.481 33.302 8.601-29.009 7.522-25.788-7.522-17.201 13.971 5.398 29.005-7.527-6.462-52.638 45.162 15.048 16.096-1.091 11.816-7.499-3.229 2.124 66.642-18.288-9.678-21.454 18.264 19.341h22.576l48.347-11.83 63.383-17.191"/><linearGradient id="d" gradientUnits="userSpaceOnUse" x1="454.547" y1="405.021" x2="463.141" y2="463.025"><stop offset="0" stop-color="#fff"/><stop offset="1" stop-color="#e44145"/></linearGradient><path fill="url(#d)" d="M451.828 393.57l8.555 36.505-22.527-3.218 4.292 21.495 3.216-15.018 26.868 3.199 2.139-32.205z"/><linearGradient id="e" gradientUnits="userSpaceOnUse" x1="427.794" y1="440.789" x2="444.298" y2="440.789"><stop offset="0" stop-color="#fff"/><stop offset="1" stop-color="#e44145"/></linearGradient><path fill="url(#e)" d="M443.751 404.512l-20.931 12.103 3.216 52.381 6.434 8.069z"/><linearGradient id="f" gradientUnits="userSpaceOnUse" x1="422.22" y1="475.36" x2="433.672" y2="475.36"><stop offset="0" stop-color="#fff"/><stop offset="1" stop-color="#e44145"/></linearGradient><path fill="url(#f)" d="M422.82 467.707l10.472 8.022-12.102 7.285-2.421-11.305z"/><linearGradient id="g" gradientUnits="userSpaceOnUse" x1="404.852" y1="476.282" x2="420.083" y2="476.282"><stop offset="0" stop-color="#fff"/><stop offset="1" stop-color="#e44145"/></linearGradient><path fill="url(#g)" d="M416.358 468.76l-16.096.836 5.613 10.979 13.703 3.23z"/><linearGradient id="h" gradientUnits="userSpaceOnUse" x1="399.736" y1="484.469" x2="406.086" y2="484.469"><stop offset="0" stop-color="#fff"/><stop offset="1" stop-color="#e44145"/></linearGradient><path fill="url(#h)" d="M401.071 477.065l4.804 5.155-8.052 9.653z"/><linearGradient id="i" gradientUnits="userSpaceOnUse" x1="524.726" y1="424.998" x2="576.849" y2="424.998"><stop offset="0" stop-color="#fff"/><stop offset="1" stop-color="#e44145"/></linearGradient><path fill="url(#i)" d="M509.018 413.409l55.618-3.716 10.485 30.609-25.775-.821z"/><linearGradient id="j" gradientUnits="userSpaceOnUse" x1="543.123" y1="446.613" x2="578.709" y2="446.613"><stop offset="0" stop-color="#fff"/><stop offset="1" stop-color="#e44145"/></linearGradient><path fill="url(#j)" d="M532.399 451.585l39.489 3.232 5.641-11.608-31.416-4.799z"/><linearGradient id="k" gradientUnits="userSpaceOnUse" x1="540.61" y1="401.211" x2="607.978" y2="401.211"><stop offset="0" stop-color="#fff"/><stop offset="1" stop-color="#e44145"/></linearGradient><path fill="url(#k)" d="M520.309 417.747l53.209-8.054 32.227-20.176-3.233-4.843-32.224 16.942z"/><linearGradient id="l" gradientUnits="userSpaceOnUse" x1="541.563" y1="385.233" x2="625.442" y2="385.233"><stop offset="0" stop-color="#fff"/><stop offset="1" stop-color="#e44145"/></linearGradient><path fill="url(#l)" d="M516.286 407.547l48.35-9.949 58.026-25.796-5.64-8.882-55.603 28.238z"/><linearGradient id="m" gradientUnits="userSpaceOnUse" x1="587.974" y1="360.5" x2="654.703" y2="360.5"><stop offset="0" stop-color="#fff"/><stop offset="1" stop-color="#e44145"/></linearGradient><path fill="url(#m)" d="M567.865 381.455l81.393-41.91 3.233 8.908z"/><linearGradient id="n" gradientUnits="userSpaceOnUse" x1="583.44" y1="392.742" x2="643.162" y2="392.742"><stop offset="0" stop-color="#fff"/><stop offset="1" stop-color="#e44145"/></linearGradient><path fill="url(#n)" d="M632.339 362.92l-66.896 40.3 14.242 7.526 32.491-13.148 10.486 24.966 18.52-10.474-12.866-24.158z"/><linearGradient id="o" gradientUnits="userSpaceOnUse" x1="358.41" y1="321.533" x2="383.966" y2="271.667"><stop offset="0" stop-color="#fff"/><stop offset="1" stop-color="#e44145"/></linearGradient><path fill="url(#o)" d="M322.878 310.535l66.87-33.818-6.436 76.553z"/><linearGradient id="p" gradientUnits="userSpaceOnUse" x1="376.58" y1="359.134" x2="383.889" y2="408.466"><stop offset="0" stop-color="#fff"/><stop offset="1" stop-color="#e44145"/></linearGradient><path fill="url(#p)" d="M355.369 352.195l45.147 32.268-29.007 10.711z"/><linearGradient id="q" gradientUnits="userSpaceOnUse" x1="382.436" y1="283.656" x2="466.923" y2="118.803"><stop offset=".187" stop-color="#fff"/><stop offset="1" stop-color="#e44145"/></linearGradient><path fill="url(#q)" d="M450.211 117.139l-97.517 38.701-6.448 24.158-45.925 33.059-1.603 20.111 13.688 9.677-.791-7.241 16.917-13.704 21.75-.794 18.537-7.256 7.254 3.207-57.232 96.734 53.194 19.348 145.06-81.409z"/><linearGradient id="r" gradientUnits="userSpaceOnUse" x1="413.186" y1="377.728" x2="466.991" y2="272.742"><stop offset="0" stop-color="#fff"/><stop offset="1" stop-color="#e44145"/></linearGradient><path fill="url(#r)" d="M461.49 274.318l12.881 126.751-97.76-2.138-19.354-54.797z"/><linearGradient id="s" gradientUnits="userSpaceOnUse" x1="479.386" y1="367.616" x2="513.377" y2="301.292"><stop offset="0" stop-color="#fff"/><stop offset="1" stop-color="#e44145"/></linearGradient><path fill="url(#s)" d="M465.783 279.676l11.804 106.368 26.882-33.314-25.788 39.761 16.11 2.147 35.467-11.804z"/><linearGradient id="t" gradientUnits="userSpaceOnUse" x1="1014.989" y1="378.728" x2="1059.054" y2="292.747" gradientTransform="rotate(7.862 940.616 -3204.618)"><stop offset="0" stop-color="#fff"/><stop offset="1" stop-color="#e44145"/></linearGradient><path fill="url(#t)" d="M471.991 273.266l61.938 124.646 110.072-58.584-4.181-16.847-150.073-52.163z"/><linearGradient id="u" gradientUnits="userSpaceOnUse" x1="532.57" y1="341.949" x2="576.622" y2="255.993"><stop offset="0" stop-color="#fff"/><stop offset="1" stop-color="#e44145"/></linearGradient><path fill="url(#u)" d="M470.062 267.872l78.464 114.962 101.017-73.078-6.477-16.111-155.784-31.171z"/><linearGradient id="v" gradientUnits="userSpaceOnUse" x1="574.644" y1="271.045" x2="617.598" y2="187.233"><stop offset="0" stop-color="#fff"/><stop offset="1" stop-color="#e44145"/></linearGradient><path fill="url(#v)" d="M489.408 259.252l165.49 33.314 16.114-54.808-20.407-30.1-114.99-30.039-4.293 8.556 99.955 26.882-98.878-18.262 74.151 31.158-74.151-24.701 82.752 38.644-95.632-35.463z"/><linearGradient id="w" gradientUnits="userSpaceOnUse" x1="636.059" y1="196.159" x2="676.751" y2="116.759"><stop offset="0" stop-color="#fff"/><stop offset="1" stop-color="#e44145"/></linearGradient><path fill="url(#w)" d="M536.707 175.453l158.478 40 49.976-34.642-8.615-24.702 22.305 15.018-22.305-20.4-118.179-48.34z"/><linearGradient id="x" gradientUnits="userSpaceOnUse" x1="739.909" y1="139.482" x2="767.997" y2="84.677"><stop offset="0" stop-color="#fff"/><stop offset="1" stop-color="#e44145"/></linearGradient><path fill="url(#x)" d="M620.522 99.15l132.151 54.809 17.185 20.427 11.804-1.087 63.428-19.34-3.233-17.191 20.408 26.84 7.522-4.266-61.23-51.583-22.572-8.609z"/><linearGradient id="y" gradientUnits="userSpaceOnUse" x1="894.877" y1="146.094" x2="924.266" y2="88.749"><stop offset="0" stop-color="#fff"/><stop offset="1" stop-color="#e44145"/></linearGradient><path fill="url(#y)" d="M811.746 106.654l55.902 47.305 109.59-24.701 25.762 7.51-10.714-10.758-163.323-24.709z"/><linearGradient id="z" gradientUnits="userSpaceOnUse" x1="358.752" y1="177.97" x2="367.897" y2="160.126"><stop offset="0" stop-color="#fff"/><stop offset="1" stop-color="#e44145"/></linearGradient><path fill="url(#z)" d="M354.324 155.84l25.759 11.279-30.622 12.879z"/><linearGradient id="A" gradientUnits="userSpaceOnUse" x1="334.819" y1="191.293" x2="382.486" y2="191.293"><stop offset="0" stop-color="#fff"/><stop offset="1" stop-color="#e44145"/></linearGradient><path fill="url(#A)" d="M350.282 180.811l30.624-7.227-.823 16.918-12.878 12.055-9.652-6.433-7.271 4.023-29.828 8.856z"/><linearGradient id="B" gradientUnits="userSpaceOnUse" x1="323.244" y1="213.435" x2="351.209" y2="213.435"><stop offset="0" stop-color="#fff"/><stop offset="1" stop-color="#e44145"/></linearGradient><path fill="url(#B)" d="M347.875 204.969l2.407 16.137-35.466.794 4.025-9.649z"/><linearGradient id="C" gradientUnits="userSpaceOnUse" x1="383.416" y1="140.917" x2="466.659" y2="140.917"><stop offset="0" stop-color="#fff"/><stop offset="1" stop-color="#e44145"/></linearGradient><path fill="url(#C)" d="M383.312 164.695l27.405-17.742 53.182 7.268-13.688-37.082-91.881 36.247z"/><linearGradient id="D" gradientUnits="userSpaceOnUse" x1="366.931" y1="275.506" x2="486.41" y2="275.506"><stop offset="0" stop-color="#fff"/><stop offset="1" stop-color="#e44145"/></linearGradient><path fill="url(#D)" d="M386.545 217.893l95.904-5.642-18.55 59.614-106.346 66.897-26.627-29.815z"/><linearGradient id="E" gradientUnits="userSpaceOnUse" x1="473.046" y1="159.856" x2="506.087" y2="159.856"><stop offset="0" stop-color="#fff"/><stop offset="1" stop-color="#e44145"/></linearGradient><path fill="url(#E)" d="M463.09 123.586l41.901 72.538L476 124.38z"/><linearGradient id="F" gradientUnits="userSpaceOnUse" x1="429.29" y1="78.869" x2="490.924" y2="78.869"><stop offset="0" stop-color="#fff"/><stop offset="1" stop-color="#e44145"/></linearGradient><path fill="url(#F)" d="M410.717 68.789l8.052 34.666 60.448.794 9.664-33.842-15.304 9.65-23.366-26.567-24.175 25.787z"/><linearGradient id="G" gradientUnits="userSpaceOnUse" x1="456.567" y1="80.633" x2="474.981" y2="80.633"><stop offset="0" stop-color="#fff"/><stop offset="1" stop-color="#e44145"/></linearGradient><path fill="url(#G)" d="M451.019 58.338l1.603 43.473 20.149 1.116 1.6-16.411z"/><linearGradient id="H" gradientUnits="userSpaceOnUse" x1="432.179" y1="78.996" x2="451.664" y2="78.996"><stop offset="0" stop-color="#fff"/><stop offset="1" stop-color="#e44145"/></linearGradient><path fill="url(#H)" d="M426.308 80.607l1.612 21.488 23.099-.794-1.062-45.403z"/><linearGradient id="I" gradientUnits="userSpaceOnUse" x1="415.598" y1="85.728" x2="430.001" y2="85.728"><stop offset="0" stop-color="#fff"/><stop offset="1" stop-color="#e44145"/></linearGradient><path fill="url(#I)" d="M411.258 70.156l8.588 31.145 9.677-.258-3.215-20.436z"/><linearGradient id="J" gradientUnits="userSpaceOnUse" x1="406.7" y1="60.469" x2="414.758" y2="60.469"><stop offset="0" stop-color="#fff"/><stop offset="1" stop-color="#e44145"/></linearGradient><path fill="url(#J)" d="M414.491 60.465c0 2.817-2.313 5.129-5.132 5.129-2.791 0-5.087-2.312-5.087-5.129 0-2.824 2.296-5.121 5.087-5.121 2.819 0 5.132 2.297 5.132 5.121z"/><linearGradient id="K" gradientUnits="userSpaceOnUse" x1="447.795" y1="45.143" x2="455.864" y2="45.143"><stop offset="0" stop-color="#fff"/><stop offset="1" stop-color="#e44145"/></linearGradient><path fill="url(#K)" d="M455.596 45.155c0 2.821-2.31 5.103-5.13 5.103a5.108 5.108 0 0 1-5.102-5.103c0-2.817 2.296-5.128 5.102-5.128 2.821 0 5.13 2.311 5.13 5.128z"/><linearGradient id="L" gradientUnits="userSpaceOnUse" x1="488.099" y1="64.492" x2="496.132" y2="64.492"><stop offset="0" stop-color="#fff"/><stop offset="1" stop-color="#e44145"/></linearGradient><path fill="url(#L)" d="M495.866 64.5c0 2.791-2.294 5.087-5.113 5.087-2.806 0-5.074-2.296-5.074-5.087 0-2.807 2.268-5.103 5.074-5.103 2.818 0 5.113 2.296 5.113 5.103z"/><path fill="none" d="M21 264.43h281.728v186.672H21z"/></svg>