<?xml version="1.0" encoding="utf-8"?>
<!-- Generator: Adobe Illustrator 15.0.0, SVG Export Plug-In . SVG Version: 6.00 Build 0)  -->
<!DOCTYPE svg PUBLIC "-//W3C//DTD SVG 1.0//EN" "http://www.w3.org/TR/2001/REC-SVG-20010904/DTD/svg10.dtd">
<svg version="1.0" id="Gri.fo_Logo" xmlns="http://www.w3.org/2000/svg" xmlns:xlink="http://www.w3.org/1999/xlink" x="0px"
	 y="0px" width="1024px" height="768px" viewBox="0 0 1024 768" enable-background="new 0 0 1024 768" xml:space="preserve">
<g id="Logo_2_">
	<g id="Logo_1_">
		<g id="Logo">
			<g id="Typografia">
				<path fill="#FFFFFF" d="M343.198,675.504c-13.362,0-23.521-3.379-30.479-10.006c-6.788-6.533-10.161-16.131-10.161-28.694
					v-69.369c0-12.605,3.373-22.173,10.161-28.735c6.788-6.508,16.962-9.759,30.479-9.759c13.547,0,23.693,3.251,30.464,9.759
					c6.775,6.562,10.176,16.13,10.176,28.735c0,2.315-1.53,3.465-4.537,3.465c-3,0-4.52-1.149-4.52-3.465
					c0-7.11-1.019-12.763-3.09-16.999c-2.081-4.137-4.645-7.343-7.749-9.523c-3.117-2.213-6.475-3.584-10.188-4.277
					c-3.643-0.611-7.172-0.937-10.558-0.937c-3.398,0-6.972,0.325-10.727,0.937c-3.755,0.693-7.213,2.064-10.285,4.277
					c-3.131,2.181-5.712,5.387-7.78,9.523c-2.068,4.236-3.078,9.889-3.078,16.999v69.369c0,10.841,2.693,18.954,8.178,24.342
					c5.458,5.061,13.349,7.627,23.692,7.627c10.345,0,18.235-2.566,23.693-7.627c5.256-5.076,7.891-13.212,7.891-24.342v-19.131
					h-36.644c-3.032,0-4.561-1.177-4.561-3.483c0-2.312,1.529-3.48,4.561-3.48h41.163c3.006,0,4.537,1.168,4.537,3.48v22.614
					c0,12.563-3.401,22.161-10.176,28.694C366.695,672.125,356.53,675.504,343.198,675.504z"/>
				<path fill="#FFFFFF" d="M469.597,608.727c8.275,6.1,12.413,14.696,12.413,25.889v37.172c0,2.323-1.502,3.484-4.535,3.484
					c-1.107,0-2.098-0.326-2.946-0.967c-0.835-0.651-1.277-1.472-1.277-2.518v-37.172c0-8.997-3.074-15.912-9.294-20.793
					c-6.192-4.852-14.965-7.234-26.243-7.234h-25.381v65.199c0,2.323-1.513,3.484-4.533,3.484c-1.135,0-2.098-0.326-2.948-0.967
					c-0.865-0.651-1.303-1.472-1.303-2.518v-139.79c0-0.903,0.438-1.659,1.303-2.277c0.851-0.671,1.813-0.989,2.948-0.989h29.914
					c15.046,0,26.13,3.094,33.312,9.316c7.129,6.256,10.714,16.056,10.714,29.388c0,13.183-3.501,23.005-10.442,29.347
					c-3.017,2.75-6.889,4.93-11.579,6.533c1.884,0.711,3.613,1.521,5.216,2.383C466.551,606.588,468.093,607.566,469.597,608.727z
					 M412.333,599.856h25.381c12.214,0,21.169-2.559,26.823-7.653c5.426-4.803,8.163-13.021,8.163-24.769
					c0-11.313-2.736-19.464-8.163-24.483c-5.471-4.986-14.381-7.485-26.823-7.485h-25.381V599.856z"/>
				<path fill="#FFFFFF" d="M507.702,675.504c-3.006,0-4.537-1.199-4.537-3.506V532.191c0-0.846,0.44-1.596,1.304-2.273
					c0.835-0.637,1.884-0.978,3.233-0.978c1.287,0,2.364,0.341,3.242,0.978c0.835,0.678,1.247,1.428,1.247,2.273v139.807
					C512.191,674.305,510.676,675.504,507.702,675.504z"/>
				<path fill="#FFFFFF" d="M536.181,666.135c1.318,0,2.409,0.342,3.244,1.008c0.852,0.618,1.262,1.397,1.262,2.248v2.607
					c0,2.307-1.487,3.506-4.506,3.506c-3.032,0-4.492-1.199-4.492-3.506v-2.607c0-0.851,0.397-1.63,1.246-2.248
					C533.787,666.477,534.864,666.135,536.181,666.135z"/>
				<path fill="#FFFFFF" d="M623.087,602.18c0,0.91-0.412,1.678-1.277,2.33c-0.849,0.617-1.939,0.966-3.242,0.966h-55.022v66.522
					c0,1.037-0.442,1.854-1.277,2.524c-0.835,0.633-1.828,0.981-2.961,0.981c-3.002,0-4.52-1.199-4.52-3.506V532.191
					c0-0.846,0.438-1.596,1.274-2.273c0.865-0.637,1.929-0.978,3.246-0.978h59.261c1.303,0,2.394,0.341,3.242,0.978
					c0.865,0.678,1.277,1.428,1.277,2.273c0,2.319-1.516,3.507-4.52,3.507h-55.022v63.038h55.022
					C621.571,598.736,623.087,599.887,623.087,602.18z"/>
				<path fill="#FFFFFF" d="M680.631,675.504c-4.52,0-9.182-0.547-13.958-1.566c-4.792-1.015-9.182-2.933-13.138-5.832
					c-3.952-2.893-7.125-6.874-9.59-11.853c-2.438-5.013-3.671-11.53-3.671-19.692v-68.894c0-12.471,3.287-22.046,9.89-28.735
					c6.943-6.639,17.117-9.991,30.466-9.991c13.559,0,23.705,3.353,30.481,9.991c6.771,6.547,10.159,16.137,10.159,28.735v68.894
					c0,8.162-1.232,14.68-3.697,19.692c-2.438,4.979-5.613,8.96-9.581,11.853c-3.939,2.899-8.32,4.817-13.12,5.832
					C690.096,674.957,685.321,675.504,680.631,675.504z M680.631,535.698c-10.701,0-18.507,2.551-23.411,7.627
					c-5.484,5.338-8.174,13.448-8.174,24.342v68.894c0,10.994,2.689,19.197,8.174,24.585c5.087,5.061,12.884,7.627,23.411,7.627
					c10.343,0,18.236-2.566,23.705-7.627c5.257-5.076,7.893-13.265,7.893-24.585v-68.894c0-11.167-2.635-19.304-7.893-24.342
					C699.067,538.249,691.158,535.698,680.631,535.698z"/>
			</g>
			<g id="Ícone">
				<linearGradient id="SVGID_1_" gradientUnits="userSpaceOnUse" x1="559.7637" y1="395.4355" x2="728.1583" y2="395.4355">
					<stop  offset="0" style="stop-color:#FFFFFF"/>
					<stop  offset="1" style="stop-color:#E44145"/>
				</linearGradient>
				<polygon fill="url(#SVGID_1_)" points="509.018,381.977 509.018,413.409 546.113,438.41 525.937,453.683 576.737,456.93 
					577.529,443.209 567.865,411.791 578.336,410.996 595.241,405.646 612.176,397.598 622.662,426.606 641.182,445.152 
					666.179,449.172 691.145,441.1 717.743,421.755 722.576,400.002 708.875,415.312 688.738,426.606 659.717,432.229 
					641.182,412.09 630.71,387.111 635.556,333.94 617.022,336.039 599.296,336.821 529.179,350.524 				"/>
				<linearGradient id="SVGID_2_" gradientUnits="userSpaceOnUse" x1="482.8022" y1="384.8398" x2="688.322" y2="-16.1766">
					<stop  offset="0" style="stop-color:#FFFFFF"/>
					<stop  offset="1" style="stop-color:#E44145"/>
				</linearGradient>
				<polyline fill="url(#SVGID_2_)" points="511.993,177.619 596.885,90.531 838.613,77.633 794.575,95.902 767.719,116.359 
					646.297,235.604 621.571,313.016 603.319,355.952 579.685,410.746 528.119,402.164 516.286,407.547 485.126,407.547 
					474.371,440.826 449.673,437.612 445.364,450.502 436.793,448.337 432.47,476.297 419.578,483.805 408.819,480.564 
					397.032,493.469 400.262,469.832 416.358,468.76 423.882,465.539 409.939,402.164 370.179,397.848 321.816,311.895 
					378.753,216.263 450.75,116.359 479.771,121.705 492.652,139.952 511.993,177.619 				"/>
				<linearGradient id="SVGID_3_" gradientUnits="userSpaceOnUse" x1="690.1299" y1="274.3281" x2="813.4822" y2="33.6392">
					<stop  offset="0" style="stop-color:#FFFFFF"/>
					<stop  offset="1" style="stop-color:#E44145"/>
				</linearGradient>
				<polyline fill="url(#SVGID_3_)" points="833.271,100.207 808.557,108.818 791.356,98.083 620.522,99.15 532.399,179.746 
					486.188,261.391 651.669,294.693 660.27,265.684 667.792,239.896 660.27,222.695 674.241,228.093 703.246,220.566 
					696.784,167.928 741.946,182.976 758.042,181.885 769.858,174.386 766.629,176.51 833.271,158.222 823.593,136.768 
					841.857,156.109 864.433,156.109 912.78,144.279 976.163,127.088 				"/>
				<linearGradient id="SVGID_4_" gradientUnits="userSpaceOnUse" x1="454.5469" y1="405.0205" x2="463.1412" y2="463.0254">
					<stop  offset="0" style="stop-color:#FFFFFF"/>
					<stop  offset="1" style="stop-color:#E44145"/>
				</linearGradient>
				<polygon fill="url(#SVGID_4_)" points="451.828,393.57 460.383,430.075 437.856,426.857 442.148,448.352 445.364,433.334 
					472.232,436.533 474.371,404.328 				"/>
				<linearGradient id="SVGID_5_" gradientUnits="userSpaceOnUse" x1="427.7939" y1="440.7891" x2="444.2982" y2="440.7891">
					<stop  offset="0" style="stop-color:#FFFFFF"/>
					<stop  offset="1" style="stop-color:#E44145"/>
				</linearGradient>
				<polygon fill="url(#SVGID_5_)" points="443.751,404.512 422.82,416.615 426.036,468.996 432.47,477.065 				"/>
				<linearGradient id="SVGID_6_" gradientUnits="userSpaceOnUse" x1="422.2197" y1="475.3604" x2="433.6718" y2="475.3604">
					<stop  offset="0" style="stop-color:#FFFFFF"/>
					<stop  offset="1" style="stop-color:#E44145"/>
				</linearGradient>
				<polygon fill="url(#SVGID_6_)" points="422.82,467.707 433.292,475.729 421.19,483.014 418.769,471.709 				"/>
				<linearGradient id="SVGID_7_" gradientUnits="userSpaceOnUse" x1="404.8516" y1="476.2822" x2="420.0829" y2="476.2822">
					<stop  offset="0" style="stop-color:#FFFFFF"/>
					<stop  offset="1" style="stop-color:#E44145"/>
				</linearGradient>
				<polygon fill="url(#SVGID_7_)" points="416.358,468.76 400.262,469.596 405.875,480.575 419.578,483.805 				"/>
				<linearGradient id="SVGID_8_" gradientUnits="userSpaceOnUse" x1="399.7363" y1="484.4688" x2="406.0857" y2="484.4688">
					<stop  offset="0" style="stop-color:#FFFFFF"/>
					<stop  offset="1" style="stop-color:#E44145"/>
				</linearGradient>
				<polygon fill="url(#SVGID_8_)" points="401.071,477.065 405.875,482.22 397.823,491.873 				"/>
				<linearGradient id="SVGID_9_" gradientUnits="userSpaceOnUse" x1="524.7256" y1="424.998" x2="576.8488" y2="424.998">
					<stop  offset="0" style="stop-color:#FFFFFF"/>
					<stop  offset="1" style="stop-color:#E44145"/>
				</linearGradient>
				<polygon fill="url(#SVGID_9_)" points="509.018,413.409 564.636,409.693 575.121,440.302 549.346,439.481 				"/>
				<linearGradient id="SVGID_10_" gradientUnits="userSpaceOnUse" x1="543.123" y1="446.6133" x2="578.7093" y2="446.6133">
					<stop  offset="0" style="stop-color:#FFFFFF"/>
					<stop  offset="1" style="stop-color:#E44145"/>
				</linearGradient>
				<polygon fill="url(#SVGID_10_)" points="532.399,451.585 571.888,454.817 577.529,443.209 546.113,438.41 				"/>
				<linearGradient id="SVGID_11_" gradientUnits="userSpaceOnUse" x1="540.6099" y1="401.2109" x2="607.978" y2="401.2109">
					<stop  offset="0" style="stop-color:#FFFFFF"/>
					<stop  offset="1" style="stop-color:#E44145"/>
				</linearGradient>
				<polygon fill="url(#SVGID_11_)" points="520.309,417.747 573.518,409.693 605.745,389.517 602.512,384.674 570.288,401.616 				
					"/>
				<linearGradient id="SVGID_12_" gradientUnits="userSpaceOnUse" x1="541.5625" y1="385.2334" x2="625.4422" y2="385.2334">
					<stop  offset="0" style="stop-color:#FFFFFF"/>
					<stop  offset="1" style="stop-color:#E44145"/>
				</linearGradient>
				<polygon fill="url(#SVGID_12_)" points="516.286,407.547 564.636,397.598 622.662,371.802 617.022,362.92 561.419,391.158 				
					"/>
				<linearGradient id="SVGID_13_" gradientUnits="userSpaceOnUse" x1="587.9736" y1="360.5" x2="654.7034" y2="360.5">
					<stop  offset="0" style="stop-color:#FFFFFF"/>
					<stop  offset="1" style="stop-color:#E44145"/>
				</linearGradient>
				<polygon fill="url(#SVGID_13_)" points="567.865,381.455 649.258,339.545 652.491,348.453 				"/>
				<linearGradient id="SVGID_14_" gradientUnits="userSpaceOnUse" x1="583.4399" y1="392.7422" x2="643.1619" y2="392.7422">
					<stop  offset="0" style="stop-color:#FFFFFF"/>
					<stop  offset="1" style="stop-color:#E44145"/>
				</linearGradient>
				<polygon fill="url(#SVGID_14_)" points="632.339,362.92 565.443,403.22 579.685,410.746 612.176,397.598 622.662,422.564 
					641.182,412.09 628.316,387.932 				"/>
				<linearGradient id="SVGID_15_" gradientUnits="userSpaceOnUse" x1="358.4102" y1="321.5332" x2="383.9664" y2="271.6671">
					<stop  offset="0" style="stop-color:#FFFFFF"/>
					<stop  offset="1" style="stop-color:#E44145"/>
				</linearGradient>
				<polygon fill="url(#SVGID_15_)" points="322.878,310.535 389.748,276.717 383.312,353.27 				"/>
				<linearGradient id="SVGID_16_" gradientUnits="userSpaceOnUse" x1="376.5801" y1="359.1338" x2="383.8894" y2="408.4655">
					<stop  offset="0" style="stop-color:#FFFFFF"/>
					<stop  offset="1" style="stop-color:#E44145"/>
				</linearGradient>
				<polygon fill="url(#SVGID_16_)" points="355.369,352.195 400.516,384.463 371.509,395.174 				"/>
				<linearGradient id="SVGID_17_" gradientUnits="userSpaceOnUse" x1="382.436" y1="283.6562" x2="466.923" y2="118.8027">
					<stop  offset="0.1868" style="stop-color:#FFFFFF"/>
					<stop  offset="1" style="stop-color:#E44145"/>
				</linearGradient>
				<polygon fill="url(#SVGID_17_)" points="450.211,117.139 352.694,155.84 346.246,179.998 300.321,213.057 298.718,233.168 
					312.406,242.845 311.615,235.604 328.532,221.9 350.282,221.106 368.819,213.85 376.073,217.057 318.841,313.791 
					372.035,333.139 517.095,251.73 				"/>
				<g>
					<linearGradient id="SVGID_18_" gradientUnits="userSpaceOnUse" x1="413.186" y1="377.7275" x2="466.9907" y2="272.7422">
						<stop  offset="0" style="stop-color:#FFFFFF"/>
						<stop  offset="1" style="stop-color:#E44145"/>
					</linearGradient>
					<polygon fill="url(#SVGID_18_)" points="461.49,274.318 474.371,401.069 376.611,398.931 357.257,344.134 					"/>
					<linearGradient id="SVGID_19_" gradientUnits="userSpaceOnUse" x1="479.3862" y1="367.6162" x2="513.3774" y2="301.2916">
						<stop  offset="0" style="stop-color:#FFFFFF"/>
						<stop  offset="1" style="stop-color:#E44145"/>
					</linearGradient>
					<polygon fill="url(#SVGID_19_)" points="465.783,279.676 477.587,386.044 504.469,352.73 478.681,392.491 494.791,394.638 
						530.258,382.834 					"/>
					
						<linearGradient id="SVGID_20_" gradientUnits="userSpaceOnUse" x1="1014.9893" y1="378.7285" x2="1059.0544" y2="292.7472" gradientTransform="matrix(0.9906 0.1369 -0.1369 0.9906 -429.8704 -158.8938)">
						<stop  offset="0" style="stop-color:#FFFFFF"/>
						<stop  offset="1" style="stop-color:#E44145"/>
					</linearGradient>
					<polygon fill="url(#SVGID_20_)" points="471.991,273.266 533.929,397.912 644.001,339.328 639.82,322.481 489.747,270.318 
											"/>
					<linearGradient id="SVGID_21_" gradientUnits="userSpaceOnUse" x1="532.5703" y1="341.9492" x2="576.6225" y2="255.9932">
						<stop  offset="0" style="stop-color:#FFFFFF"/>
						<stop  offset="1" style="stop-color:#E44145"/>
					</linearGradient>
					<polygon fill="url(#SVGID_21_)" points="470.062,267.872 548.526,382.834 649.543,309.756 643.066,293.645 487.282,262.474 
											"/>
					<linearGradient id="SVGID_22_" gradientUnits="userSpaceOnUse" x1="574.6445" y1="271.0449" x2="617.5976" y2="187.2335">
						<stop  offset="0" style="stop-color:#FFFFFF"/>
						<stop  offset="1" style="stop-color:#E44145"/>
					</linearGradient>
					<polygon fill="url(#SVGID_22_)" points="489.408,259.252 654.898,292.566 671.012,237.758 650.605,207.658 535.615,177.619 
						531.322,186.175 631.277,213.057 532.399,194.795 606.55,225.953 532.399,201.252 615.151,239.896 519.519,204.433 					"/>
					<linearGradient id="SVGID_23_" gradientUnits="userSpaceOnUse" x1="636.0586" y1="196.1592" x2="676.7512" y2="116.7586">
						<stop  offset="0" style="stop-color:#FFFFFF"/>
						<stop  offset="1" style="stop-color:#E44145"/>
					</linearGradient>
					<polygon fill="url(#SVGID_23_)" points="536.707,175.453 695.185,215.453 745.161,180.811 736.546,156.109 758.851,171.127 
						736.546,150.727 618.367,102.387 					"/>
					<linearGradient id="SVGID_24_" gradientUnits="userSpaceOnUse" x1="739.9092" y1="139.4824" x2="767.9968" y2="84.6771">
						<stop  offset="0" style="stop-color:#FFFFFF"/>
						<stop  offset="1" style="stop-color:#E44145"/>
					</linearGradient>
					<polygon fill="url(#SVGID_24_)" points="620.522,99.15 752.673,153.959 769.858,174.386 781.662,173.299 845.09,153.959 
						841.857,136.768 862.265,163.608 869.787,159.342 808.557,107.759 785.985,99.15 					"/>
					<linearGradient id="SVGID_25_" gradientUnits="userSpaceOnUse" x1="894.877" y1="146.0938" x2="924.2659" y2="88.7491">
						<stop  offset="0" style="stop-color:#FFFFFF"/>
						<stop  offset="1" style="stop-color:#E44145"/>
					</linearGradient>
					<polygon fill="url(#SVGID_25_)" points="811.746,106.654 867.648,153.959 977.238,129.258 1003,136.768 992.286,126.01 
						828.963,101.301 					"/>
				</g>
				<linearGradient id="SVGID_26_" gradientUnits="userSpaceOnUse" x1="358.752" y1="177.9697" x2="367.8967" y2="160.1263">
					<stop  offset="0" style="stop-color:#FFFFFF"/>
					<stop  offset="1" style="stop-color:#E44145"/>
				</linearGradient>
				<polygon fill="url(#SVGID_26_)" points="354.324,155.84 380.083,167.119 349.461,179.998 				"/>
				<linearGradient id="SVGID_27_" gradientUnits="userSpaceOnUse" x1="334.8188" y1="191.293" x2="382.4863" y2="191.293">
					<stop  offset="0" style="stop-color:#FFFFFF"/>
					<stop  offset="1" style="stop-color:#E44145"/>
				</linearGradient>
				<polygon fill="url(#SVGID_27_)" points="350.282,180.811 380.906,173.584 380.083,190.502 367.205,202.557 357.553,196.124 
					350.282,200.147 320.454,209.003 				"/>
				<linearGradient id="SVGID_28_" gradientUnits="userSpaceOnUse" x1="323.2437" y1="213.4346" x2="351.2088" y2="213.4346">
					<stop  offset="0" style="stop-color:#FFFFFF"/>
					<stop  offset="1" style="stop-color:#E44145"/>
				</linearGradient>
				<polygon fill="url(#SVGID_28_)" points="347.875,204.969 350.282,221.106 314.816,221.9 318.841,212.251 				"/>
				<linearGradient id="SVGID_29_" gradientUnits="userSpaceOnUse" x1="383.4155" y1="140.917" x2="466.6588" y2="140.917">
					<stop  offset="0" style="stop-color:#FFFFFF"/>
					<stop  offset="1" style="stop-color:#E44145"/>
				</linearGradient>
				<polygon fill="url(#SVGID_29_)" points="383.312,164.695 410.717,146.953 463.899,154.221 450.211,117.139 358.33,153.386 				
					"/>
				<linearGradient id="SVGID_30_" gradientUnits="userSpaceOnUse" x1="366.9312" y1="275.5059" x2="486.4102" y2="275.5059">
					<stop  offset="0" style="stop-color:#FFFFFF"/>
					<stop  offset="1" style="stop-color:#E44145"/>
				</linearGradient>
				<polygon fill="url(#SVGID_30_)" points="386.545,217.893 482.449,212.251 463.899,271.865 357.553,338.762 330.926,308.947 				
					"/>
				<linearGradient id="SVGID_31_" gradientUnits="userSpaceOnUse" x1="473.0464" y1="159.8555" x2="506.0865" y2="159.8555">
					<stop  offset="0" style="stop-color:#FFFFFF"/>
					<stop  offset="1" style="stop-color:#E44145"/>
				</linearGradient>
				<polygon fill="url(#SVGID_31_)" points="463.09,123.586 504.991,196.124 476,124.38 				"/>
				<linearGradient id="SVGID_32_" gradientUnits="userSpaceOnUse" x1="429.29" y1="78.8691" x2="490.9244" y2="78.8691">
					<stop  offset="0" style="stop-color:#FFFFFF"/>
					<stop  offset="1" style="stop-color:#E44145"/>
				</linearGradient>
				<polygon fill="url(#SVGID_32_)" points="410.717,68.789 418.769,103.455 479.217,104.249 488.881,70.407 473.577,80.057 
					450.211,53.49 426.036,79.277 				"/>
				<linearGradient id="SVGID_33_" gradientUnits="userSpaceOnUse" x1="456.5674" y1="80.6328" x2="474.9814" y2="80.6328">
					<stop  offset="0" style="stop-color:#FFFFFF"/>
					<stop  offset="1" style="stop-color:#E44145"/>
				</linearGradient>
				<polygon fill="url(#SVGID_33_)" points="451.019,58.338 452.622,101.811 472.771,102.927 474.371,86.516 				"/>
				<linearGradient id="SVGID_34_" gradientUnits="userSpaceOnUse" x1="432.1792" y1="78.9961" x2="451.6643" y2="78.9961">
					<stop  offset="0" style="stop-color:#FFFFFF"/>
					<stop  offset="1" style="stop-color:#E44145"/>
				</linearGradient>
				<polygon fill="url(#SVGID_34_)" points="426.308,80.607 427.92,102.095 451.019,101.301 449.957,55.898 				"/>
				<linearGradient id="SVGID_35_" gradientUnits="userSpaceOnUse" x1="415.5981" y1="85.7285" x2="430.001" y2="85.7285">
					<stop  offset="0" style="stop-color:#FFFFFF"/>
					<stop  offset="1" style="stop-color:#E44145"/>
				</linearGradient>
				<polygon fill="url(#SVGID_35_)" points="411.258,70.156 419.846,101.301 429.523,101.043 426.308,80.607 				"/>
				<linearGradient id="SVGID_36_" gradientUnits="userSpaceOnUse" x1="406.6997" y1="60.4688" x2="414.7578" y2="60.4688">
					<stop  offset="0" style="stop-color:#FFFFFF"/>
					<stop  offset="1" style="stop-color:#E44145"/>
				</linearGradient>
				<path fill="url(#SVGID_36_)" d="M414.491,60.465c0,2.817-2.313,5.129-5.132,5.129c-2.791,0-5.087-2.312-5.087-5.129
					c0-2.824,2.296-5.121,5.087-5.121C412.178,55.344,414.491,57.641,414.491,60.465z"/>
				<linearGradient id="SVGID_37_" gradientUnits="userSpaceOnUse" x1="447.7954" y1="45.1426" x2="455.8639" y2="45.1426">
					<stop  offset="0" style="stop-color:#FFFFFF"/>
					<stop  offset="1" style="stop-color:#E44145"/>
				</linearGradient>
				<path fill="url(#SVGID_37_)" d="M455.596,45.155c0,2.821-2.31,5.103-5.13,5.103c-2.806,0-5.102-2.281-5.102-5.103
					c0-2.817,2.296-5.128,5.102-5.128C453.287,40.027,455.596,42.338,455.596,45.155z"/>
				<linearGradient id="SVGID_38_" gradientUnits="userSpaceOnUse" x1="488.0991" y1="64.4922" x2="496.1318" y2="64.4922">
					<stop  offset="0" style="stop-color:#FFFFFF"/>
					<stop  offset="1" style="stop-color:#E44145"/>
				</linearGradient>
				<path fill="url(#SVGID_38_)" d="M495.866,64.5c0,2.791-2.294,5.087-5.113,5.087c-2.806,0-5.074-2.296-5.074-5.087
					c0-2.807,2.268-5.103,5.074-5.103C493.571,59.397,495.866,61.693,495.866,64.5z"/>
			</g>
		</g>
		<rect id="Espaço_Morto" x="21" y="264.43" fill="none" width="281.728" height="186.672"/>
	</g>
</g>
</svg>
